<?xml version="1.0" encoding="UTF-8" standalone="no"?>
<svg
   xmlns:dc="http://purl.org/dc/elements/1.1/"
   xmlns:cc="http://creativecommons.org/ns#"
   xmlns:rdf="http://www.w3.org/1999/02/22-rdf-syntax-ns#"
   xmlns:svg="http://www.w3.org/2000/svg"
   xmlns="http://www.w3.org/2000/svg"
   viewBox="0 0 248.56799 91.445335"
   height="91.445335"
   width="248.56799"
   xml:space="preserve"
   id="svg2"
   version="1.1"><metadata
     id="metadata8"><rdf:RDF><cc:Work
         rdf:about=""><dc:format>image/svg+xml</dc:format><dc:type
           rdf:resource="http://purl.org/dc/dcmitype/StillImage" /></cc:Work></rdf:RDF></metadata><defs
     id="defs6"><clipPath
       id="clipPath18"
       clipPathUnits="userSpaceOnUse"><path
         id="path16"
         d="M 0,68.584 H 186.426 V 0 H 0 Z" /></clipPath></defs><g
     transform="matrix(1.3333333,0,0,-1.3333333,0,91.445333)"
     id="g10"><g
       id="g12"><g
         clip-path="url(#clipPath18)"
         id="g14"><g
           transform="translate(109.3599,29.0952)"
           id="g20"><path
             id="path22"
             style="fill:#ffffff;fill-opacity:1;fill-rule:nonzero;stroke:none"
             d="m 0,0 c -0.81,-4.017 -3.913,-4.221 -4.528,-4.221 -1.752,0 -2.797,1.012 -2.797,2.704 0,0.387 0.057,0.913 0.155,1.439 l 1.92,9.562 0.008,0.037 h -2.267 l -1.956,-9.805 -0.026,-0.14 c -0.084,-0.443 -0.162,-0.863 -0.162,-1.408 0,-2.634 1.73,-4.402 4.308,-4.402 1.887,0 3.401,0.619 4.508,1.841 L -1.131,-6.008 -1.139,-6.046 H 1.096 L 4.185,9.484 4.191,9.521 H 1.892 Z" /></g><g
           transform="translate(124.8149,38.8047)"
           id="g24"><path
             id="path26"
             style="fill:#ffffff;fill-opacity:1;fill-rule:nonzero;stroke:none"
             d="m 0,0 c -1.752,0 -3.304,-0.716 -4.281,-1.974 l 0.351,1.748 0.007,0.037 h -2.236 l -3.089,-15.529 -0.007,-0.038 h 2.269 l 1.891,9.525 c 0.484,2.444 2.361,4.217 4.466,4.217 0.903,0 1.615,-0.356 2.175,-1.087 L 1.567,-3.129 3.409,-1.48 3.39,-1.457 C 2.54,-0.475 1.429,0 0,0" /></g><g
           transform="translate(87.3296,36.6411)"
           id="g28"><path
             id="path30"
             style="fill:#ffffff;fill-opacity:1;fill-rule:nonzero;stroke:none"
             d="M 0,0 -0.007,-0.039 H 7.729 L -2.57,-11.683 -2.576,-11.689 -2.964,-13.592 H 8.014 l 0.391,2.014 H 0.198 l 10.331,11.645 0.005,0.007 0.387,1.901 H 0.384 Z" /></g><g
           transform="translate(128.5117,23.0869)"
           id="g32"><path
             id="path34"
             style="fill:#ffffff;fill-opacity:1;fill-rule:nonzero;stroke:none"
             d="M 0,0 -0.008,-0.038 H 2.259 L 5.353,15.529 H 3.123 Z" /></g><g
           transform="translate(159.2524,38.8037)"
           id="g36"><path
             id="path38"
             style="fill:#ffffff;fill-opacity:1;fill-rule:nonzero;stroke:none"
             d="m 0,0 c -1.865,0 -3.321,-0.571 -4.44,-1.75 l 1.758,8.669 H -4.95 l -4.555,-22.676 h 2.268 l 1.89,9.526 c 0.811,4.015 3.942,4.218 4.56,4.218 1.733,0 2.768,-1.011 2.768,-2.704 0,-0.384 -0.058,-0.908 -0.158,-1.44 l -1.924,-9.6 h 2.266 l 1.988,9.809 c 0.096,0.521 0.159,0.962 0.159,1.547 C 4.312,-1.769 2.577,0 0,0" /></g><g
           transform="translate(144.2212,38.8047)"
           id="g40"><path
             id="path42"
             style="fill:#ffffff;fill-opacity:1;fill-rule:nonzero;stroke:none"
             d="m 0,0 c -4.113,0 -7,-2.897 -7.923,-7.949 -0.166,-0.846 -0.223,-1.793 -0.223,-2.397 0,-3.452 2.095,-5.597 5.471,-5.597 1.963,0 3.755,0.752 5.181,2.177 l 0.02,0.021 -1.307,1.596 -0.024,0.028 -0.024,-0.027 c -1.203,-1.266 -2.281,-1.783 -3.721,-1.783 -1.609,0 -3.33,0.958 -3.33,3.648 0,0.842 0.1,1.538 0.249,2.322 0.243,1.32 0.79,3.164 2.005,4.447 0.966,0.995 2.111,1.5 3.406,1.5 1.352,0 2.198,-0.481 3.022,-1.715 l 0.019,-0.03 1.664,1.406 0.024,0.02 -0.018,0.025 C 3.354,-0.711 1.969,0 0,0" /></g><g
           transform="translate(132.4761,42.8882)"
           id="g44"><path
             id="path46"
             style="fill:#ffffff;fill-opacity:1;fill-rule:nonzero;stroke:none"
             d="M 0,0 H 2.272 L 2.837,2.834 H 0.573 Z" /></g><g
           transform="translate(110.4292,42.8882)"
           id="g48"><path
             id="path50"
             style="fill:#ffffff;fill-opacity:1;fill-rule:nonzero;stroke:none"
             d="M 0,0 H 2.273 L 2.835,2.834 H 0.574 Z" /></g><g
           transform="translate(104.3828,42.8882)"
           id="g52"><path
             id="path54"
             style="fill:#ffffff;fill-opacity:1;fill-rule:nonzero;stroke:none"
             d="M 0,0 H 2.272 L 2.836,2.834 H 0.575 Z" /></g><g
           transform="translate(74.0903,36.936)"
           id="g56"><path
             id="path58"
             style="fill:#ffffff;fill-opacity:1;fill-rule:nonzero;stroke:none"
             d="m 0,0 h -5.102 l 1.792,8.787 h -43.365 l -4.554,-22.676 h 17.29 l 1.132,5.668 h -10.208 l 0.619,3.118 h 10.205 L -31.164,0 h -10.207 l 0.618,3.119 h 16.18 l -3.416,-17.008 h 7.087 l 3.416,17.008 h 5.949 l -3.415,-17.008 h 7.088 l 1.749,8.786 h 5.1 l -1.749,-8.786 H 4.323 L 8.879,8.787 H 1.792 Z" /></g></g></g></g></svg>