<?xml version="1.0" encoding="UTF-8" standalone="no"?>
<svg
   xmlns:dc="http://purl.org/dc/elements/1.1/"
   xmlns:cc="http://creativecommons.org/ns#"
   xmlns:rdf="http://www.w3.org/1999/02/22-rdf-syntax-ns#"
   xmlns:svg="http://www.w3.org/2000/svg"
   xmlns="http://www.w3.org/2000/svg"
   viewBox="0 0 383.04001 208.88"
   height="208.88"
   width="383.04001"
   xml:space="preserve"
   id="svg2"
   version="1.1"><metadata
     id="metadata8"><rdf:RDF><cc:Work
         rdf:about=""><dc:format>image/svg+xml</dc:format><dc:type
           rdf:resource="http://purl.org/dc/dcmitype/StillImage" /></cc:Work></rdf:RDF></metadata><defs
     id="defs6" /><g
     transform="matrix(1.3333333,0,0,-1.3333333,0,208.88)"
     id="g10"><g
       transform="scale(0.1)"
       id="g12"><path
         id="path14"
         style="fill:#ffffff;fill-opacity:1;fill-rule:nonzero;stroke:none"
         d="m 1629.18,829.617 c -12.18,26.973 -37.41,46.981 -75.69,46.981 -38.29,0 -63.52,-20.008 -75.7,-46.981 -6.96,-16.531 -9.57,-28.711 -10.44,-48.722 h 172.27 c -0.87,20.011 -3.48,32.191 -10.44,48.722 z M 1467.35,703.465 c 0,-58.301 35.68,-100.926 99.18,-100.926 49.6,0 73.96,13.914 102.67,42.625 l 68.73,-66.992 c -46.11,-46.113 -90.48,-71.352 -172.27,-71.352 -107.01,0 -209.67,48.731 -209.67,232.309 0,147.91 80.04,231.434 197.5,231.434 126.15,0 197.5,-92.223 197.5,-216.641 v -50.457 h -283.64" /><path
         id="path16"
         style="fill:#ffffff;fill-opacity:1;fill-rule:nonzero;stroke:none"
         d="m 1997.17,512.051 c -92.23,0 -131.38,65.25 -131.38,129.637 V 866.16 h -47.85 v 86.133 h 47.85 V 1086.29 H 1978.9 V 952.293 h 80.05 V 866.16 H 1978.9 V 648.648 c 0,-26.101 12.17,-40.894 39.15,-40.894 h 40.9 v -95.703 h -61.78" /><path
         id="path18"
         style="fill:#ffffff;fill-opacity:1;fill-rule:nonzero;stroke:none"
         d="m 2421.73,512.051 v 276.676 c 0,60.031 -38.29,80.039 -73.96,80.039 -35.67,0 -73.08,-20.879 -73.08,-80.039 V 512.051 h -113.11 v 619.479 h 113.11 V 923.582 c 30.45,31.328 68.73,46.981 108.75,46.981 99.19,0 151.39,-69.598 151.39,-165.301 V 512.051 h -113.1" /><path
         id="path20"
         style="fill:#ffffff;fill-opacity:1;fill-rule:nonzero;stroke:none"
         d="M 590.781,526.059 H 503.066 L 337.949,974.117 h 117.813 l 91.164,-276.922 90.293,276.922 h 117.82 L 590.781,526.059" /><path
         id="path22"
         style="fill:#ffffff;fill-opacity:1;fill-rule:nonzero;stroke:none"
         d="m 1029.12,1020.79 c -147.741,0 -267.936,-121.099 -267.936,-269.958 0,-124.59 84.226,-229.691 198.308,-260.66 v 0.469 c 16.106,-3.911 33.469,-5.672 50.698,-5.672 36.5,0 72.33,7.902 93.99,19.992 34.05,18.988 57.03,44.68 68.31,76.352 12.09,33.941 10.82,67.371 -3.77,99.375 -7.63,16.679 -19.71,33.757 -35.92,50.785 l -33.98,35.566 c -34.03,35.527 -46.16,52.227 -50.49,60.219 -4.97,8.808 -9.92,22.062 -5.26,35.14 2.6,7.313 10.46,21.102 33.81,31.379 13.65,6 21.13,7.227 24.13,7.457 l 7.55,29.442 c -41.2,12.265 -126.47,11.039 -165.072,-79.285 -11.371,-26.582 -11.906,-55.551 -1.554,-83.77 9.121,-24.898 28.515,-52.715 59.296,-85.027 l 29.31,-30.844 c 21.33,-22.27 29.16,-33.625 31.95,-39.168 5.38,-10.809 5.76,-22.34 1.16,-35.262 -4.25,-11.941 -10.45,-19.379 -22.1,-26.531 -6.45,-3.957 -41.03,-23.039 -88.464,-9.348 l -0.012,-0.011 c -87.711,31.277 -150.601,114.883 -150.601,213.347 0,125.172 101.48,226.645 226.647,226.645 125.18,0 226.65,-101.473 226.65,-226.645 0,-43.418 -12.23,-83.968 -33.4,-118.437 l 31.07,-32.906 c 27.55,42.414 43.63,93.039 43.63,147.398 0,148.859 -120.2,269.958 -267.95,269.958" /></g></g></svg>